<svg xmlns="http://www.w3.org/2000/svg" width="15" height="15" viewBox="0 0 20 20" style="border-radius: 50%;">
    <g id="ic_goal" transform="translate(-7658 -392)" fill="#ffffff">
        <path id="Rectangle_3217" d="M0 0H20V20H0z" transform="translate(7658 392)"></path>
        <g id="Group_4616" fill="black" transform="translate(7658.909 392.909)">
            <path id="Path_2233" d="M13.868 14.289c-.254 0-.507-.017-.761-.042a.513.513 0 0 1-.372-.3c-.262-.973-.516-1.894-.761-2.791a.537.537 0 0 1 .22-.651l2.13-1.905a.489.489 0 0 1 .643 0 6.988 6.988 0 0 1 1.894 1.514.876.876 0 0 1 .195.533 5.286 5.286 0 0 1-.913 2.985.17.17 0 0 1-.034.068 1.077 1.077 0 0 1-.431.347 6.231 6.231 0 0 1-1.81.245z" class="cls-2" transform="translate(-1.842 -1.308)"></path>
            <path id="Path_2234" d="M5.7 11.918a.42.42 0 0 1-.279-.1 5.923 5.923 0 0 1-1.708-1.564.643.643 0 0 1-.118-.364 5.615 5.615 0 0 1 .761-2.825.123.123 0 0 1 .044-.077.668.668 0 0 1 .262-.144A5.05 5.05 0 0 1 6.5 6.5a3.362 3.362 0 0 1 .584 0 .486.486 0 0 1 .431.431c.152.66.321 1.336.482 2.013l.127.541a.476.476 0 0 1-.135.465L6.017 11.8a.434.434 0 0 1-.313.127H5.7z" class="cls-2" transform="translate(-.554 -1.001)"></path>
            <path id="Path_2235" d="M9.091 0a9.091 9.091 0 1 0 9.091 9.091A9.088 9.088 0 0 0 9.091 0zM9.2 15.839l-.051-.186a.52.52 0 0 0-.516-.448 5.209 5.209 0 0 1-2.909-.947.646.646 0 0 0-.279-.068.436.436 0 0 0-.33.11l-.617.584A7.384 7.384 0 0 1 8.66 1.717l.093.321q.089.266.152.533a.57.57 0 0 0 .355.355h.076a10.083 10.083 0 0 1 2.918.9.367.367 0 0 0 .211.042.562.562 0 0 0 .288-.076l.829-.584A7.379 7.379 0 0 1 9.4 16.465z" class="cls-2"></path>
        </g>
    </g>
</svg>